# xmcd CD database file
#
# Track frame offsets:
#	150
#	32737
#	52625
#
# Disc length: 1009 seconds
#
# Revision: 8
# Processed by: cddbd v1.5.1PL0 Copyright (c) Steve Scherf et al.
# Submitted via: CDex 1.51
#
DISCID=1703ef03
DTITLE=Dragon Ash - 陽はまたのぼりくりかえす
DYEAR=1998
DGENRE=
TTITLE0=陽はまたのぼりくりかえす
TTITLE1=Don't worry 'bout me
TTITLE2=Cowboy Fuck!-featuring DJ BOTS-
EXTD=YEAR: 1998
EXTT0=
EXTT1=
EXTT2=
PLAYORDER=
